<?xml version="1.0" encoding="UTF-8" standalone="no"?>
<svg
   xmlns:dc="http://purl.org/dc/elements/1.1/"
   xmlns:cc="http://creativecommons.org/ns#"
   xmlns:rdf="http://www.w3.org/1999/02/22-rdf-syntax-ns#"
   xmlns:svg="http://www.w3.org/2000/svg"
   xmlns="http://www.w3.org/2000/svg"
   xmlns:sodipodi="http://sodipodi.sourceforge.net/DTD/sodipodi-0.dtd"
   xmlns:inkscape="http://www.inkscape.org/namespaces/inkscape"
   version="1.1"
   id="Layer_1"
   x="0px"
   y="0px"
   width="1000px"
   height="1000px"
   viewBox="0 0 1000 1000"
   style="enable-background:new 0 0 1000 1000;"
   xml:space="preserve"
   sodipodi:docname="diavoletto.svg"
   inkscape:version="1.0.2 (e86c8708, 2021-01-15)"><metadata
   id="metadata425"><rdf:RDF><cc:Work
       rdf:about=""><dc:format>image/svg+xml</dc:format><dc:type
         rdf:resource="http://purl.org/dc/dcmitype/StillImage" /><dc:title></dc:title></cc:Work></rdf:RDF></metadata><defs
   id="defs423" /><sodipodi:namedview
   pagecolor="#ffffff"
   bordercolor="#666666"
   borderopacity="1"
   objecttolerance="10"
   gridtolerance="10"
   guidetolerance="10"
   inkscape:pageopacity="0"
   inkscape:pageshadow="2"
   inkscape:window-width="1920"
   inkscape:window-height="1035"
   id="namedview421"
   showgrid="false"
   inkscape:zoom="3.9833757"
   inkscape:cx="464.37359"
   inkscape:cy="224.24748"
   inkscape:window-x="1679"
   inkscape:window-y="23"
   inkscape:window-maximized="0"
   inkscape:current-layer="Layer_1"
   inkscape:document-rotation="0" />
<g
   id="illustration">
	<rect
   x="432.4"
   y="906.2"
   style="fill:#FFFFFF;"
   width="30.6"
   height="4.4"
   id="rect202" /><rect
   x="432.4"
   y="897.7"
   style="fill:#FFFFFF;"
   width="30.6"
   height="4.4"
   id="rect200" /><rect
   x="432.4"
   y="889.3"
   style="fill:#FFFFFF;"
   width="30.6"
   height="4.4"
   id="rect198" /><path
   style="fill:#2e4648;fill-opacity:1"
   d="m 482.86187,109.25309 c 1.9,7.7 21.89757,20.49726 41.59757,-3.20274 7.17243,-12.157091 8.08856,-15.513784 18.79726,-25.582696 -3.21188,-1.89793 -12.61326,4.956921 -22.07522,12.994332 -4.67212,3.968714 -15.46321,18.977924 -20.92478,18.909664 -1,-9 -23.86939,-27.708692 -39.6127,-28.137823 5.18826,10.523651 12.16274,10.161001 22.21787,25.019263 z"
   id="path288"
   sodipodi:nodetypes="cccsccc" />
	<rect
   x="535.7"
   y="889.3"
   style="fill:#FFFFFF;"
   width="30.6"
   height="4.4"
   id="rect188" />
	<rect
   x="535.7"
   y="897.7"
   style="fill:#FFFFFF;"
   width="30.6"
   height="4.4"
   id="rect190" />
	<rect
   x="535.7"
   y="906.2"
   style="fill:#FFFFFF;"
   width="30.6"
   height="4.4"
   id="rect192" />
	
	<path
   style="fill:#99afb1;fill-opacity:1"
   d="m 429.64559,505.83527 c 0,0 -15.52908,58.61718 -11.76591,87.95698 5.88729,45.90065 19.7717,113.43898 19.7717,113.43898 l -1.70921,170.96938 c 0,0 4.16881,24.11619 10.41507,23.82042 1.82563,-0.0691 6.97917,-17.41705 8.76129,-12.24304 12.74319,36.99713 12.76807,-8.24579 16.55444,1.33005 C 484.38052,923.24577 486.71562,877.8 486.71562,877.8 l 3.16473,-175.59824 c 0,0 11.28352,-64.2252 11.60403,-96.68237 C 501.72857,580.79132 494.1,531.7 494.1,531.7 H 514 c 0,0 -1.86331,46.44245 0.64967,69.46004 3.58002,32.79111 20.44857,96.82208 20.44857,96.82208 l 0.60177,191.31787 c 0,0 6.21773,17.9451 9.83869,17.07364 4.00855,0.2345 1.61835,-41.10533 8.29473,-0.79345 3.29378,-1.86504 7.68925,-46.67117 12.48866,-0.45719 12.24428,-6.54559 17.22475,-27.323 17.22476,-27.32299 l 1.05492,-177.70806 c 0,0 12.65033,-70.0704 11.36444,-105.376 -1.13513,-31.16636 -16.77251,-92.04541 -16.77251,-92.04541 z"
   id="path196"
   sodipodi:nodetypes="cscccssccaccacccccccacc" />
	
	
	
	<path
   style="fill:#99afb1;fill-opacity:1"
   d="m 429.64559,505.83527 c 0,-47.3 -7.71385,-98.9665 -14.26121,-164.23527 8.4,-16.8 11.51562,-31.5 24.61562,-42.5 15.7,-13.2 35.3,-21.2 59.4,-21.2 26.1,0 46.9,9.2 63.4,24.3 10.3,9.4 19,21.2 26.2,34.4 -11.53174,53.56474 -9.8063,116.17053 -9.8063,166.07053 z"
   id="path204"
   sodipodi:nodetypes="cccscccc" />
	<line
   style="fill:none;"
   x1="616.8"
   y1="509.6"
   x2="384"
   y2="509.6"
   id="line206" />
	<ellipse
   style="fill:#718e90;fill-opacity:1"
   cx="500.9"
   cy="304.3"
   rx="22"
   ry="16.3"
   id="ellipse208" />
	
	<path
   style="fill:#99afb1"
   d="m 285.8,270.89064 3.21059,48.16576 c 58.9,0.3 100.57379,2.5436 126.37379,22.5436 L 456.8,291.4 c -54.3,-26.7 -115,-23.90936 -171,-20.50936 z"
   id="path212"
   sodipodi:nodetypes="ccccc" />
	<path
   style="fill:#99afb1"
   d="m 545.7,290.4 43.3,53.2 c 27,-16.2 67.7,-22.03872 126.6,-22.43872 V 273.54323 C 659.6,270.14323 616.4,259.7 545.7,290.4 Z"
   id="path214"
   sodipodi:nodetypes="ccccc" />
	<path
   style="fill:#99afb1;fill-opacity:1"
   d="m 285.8,270.89064 c -47.7,2.7 -117.80009,21.55544 -155,17.00936 -56.571805,-6.91345 -4.7527,12.93461 -9.17534,16.28705 -3.10241,2.35169 -22.041882,0.18676 -21.11947,5.63533 1.39435,8.23625 16.44155,17.83075 35.59481,17.57762 45.4,-0.6 88.41059,0.2564 152.91059,-8.3436 z"
   id="path216"
   sodipodi:nodetypes="csssscc" />
	
	<path
   style="fill:#99afb1;fill-opacity:1"
   d="m 715.6,321.16128 c 64.5,8.6 107.4,8.63872 152.8,9.23872 23.68422,0.31301 28.96082,-15.10201 21.91088,-17.54564 -25.92267,-8.98526 -3.85776,-7.33702 -2.27299,-8.93797 C 893.93726,297.95668 910.93753,289.33319 873.7,290.9 836.25647,292.47548 763.3,276.24323 715.6,273.54323 Z"
   id="path220"
   sodipodi:nodetypes="csssscc" />
	<path
   style="fill:#99afb1;fill-opacity:1"
   d="M489.5,211.9h20.9c0,0,4.3,67.3,5.7,90.8c-2.1,9.7-9.1,11.3-15.5,11.1c-8.2-0.2-15.9-4.7-17.1-12.5   L489.5,211.9z"
   id="path222" />
	<path
   style="fill:#718e90;fill-opacity:1"
   d="M489.5,211.9h20.9c1.9,19-21.6,89.4-26.8,89.4L489.5,211.9z"
   id="path224" />
	<path
   style="fill:#99afb1;fill-opacity:1"
   d="m 484.50989,115.69743 c -13.01742,0 -28.95485,-23.858928 -39.39486,-19.036148 2.20092,15.319848 10.49197,23.987608 13.67296,32.411448 1.84091,12.74521 -7.20386,21.31302 -4.7919,47.6131 24.8,42.1 89.56967,58.01225 89.57869,11.48269 2.3598,-25.78675 -13.93639,-49.12845 -0.84656,-60.5904 8.34742,-7.30932 10.64073,-26.19582 10.60448,-31.070895 -5.35442,-0.72077 -21.74178,15.459565 -29.36692,19.000715 -11.55441,5.36593 -18.40338,-0.81051 -39.45589,0.18949 z"
   id="path226"
   sodipodi:nodetypes="cccccscsc" />
	
	
	<path
   style="fill:#99afb1;fill-opacity:1;stroke:#99afb1;stroke-opacity:1"
   id="ellipse232"
   sodipodi:type="arc"
   sodipodi:cx="499.79999"
   sodipodi:cy="177.39999"
   sodipodi:rx="45.803898"
   sodipodi:ry="57.599998"
   sodipodi:start="0"
   sodipodi:end="6.2660204"
   sodipodi:open="true"
   sodipodi:arc-type="arc"
   d="m 545.60389,177.39999 a 45.803898,57.599998 0 0 1 -45.60735,57.59947 45.803898,57.599998 0 0 1 -45.99876,-57.10512 45.803898,57.599998 0 0 1 45.21256,-58.08957 45.803898,57.599998 0 0 1 46.3868,56.60657" />
	<g
   id="g244">
		<path
   id="rightMiddleLip_2_"
   d="M487.5,209.6c0.3,0,0.5,0.3,0.5,0.5s-0.3,0.5-0.5,0.5c-0.3,0-0.5-0.3-0.5-0.5    S487.3,209.6,487.5,209.6z" />
		<circle
   id="upperLipBottomMid_1_"
   cx="499.3"
   cy="209.9"
   r="0.5" />
		<circle
   id="rightUpperLipBottom1_1_"
   cx="496.8"
   cy="209.6"
   r="0.5" />
		<path
   id="leftMiddleLip_2_"
   d="M511.1,209.6c0.3,0,0.5,0.3,0.5,0.5s-0.3,0.5-0.5,0.5s-0.5-0.3-0.5-0.5S510.8,209.6,511.1,209.6z" />
		<circle
   id="leftUpperLipBottom1_1_"
   cx="501.8"
   cy="209.6"
   r="0.5" />
		<path
   style="fill:#DF7977;stroke:#DF7977;stroke-width:2;stroke-miterlimit:10;"
   d="M488,210.1c0,0,7.7-0.1,11.3-0.1    s11.9-0.1,11.9-0.1s-6.9,2.6-11.9,2.6C494.2,212.5,488,210.1,488,210.1z"
   id="path239" />
		<circle
   id="lowerLipTopMid_2_"
   cx="499.3"
   cy="211.9"
   r="0.5" />
		<circle
   id="rightLowerLipTop0_2_"
   cx="496.8"
   cy="211.4"
   r="0.5" />
		<circle
   id="leftLowerLipTop0_2_"
   cx="501.8"
   cy="211.4"
   r="0.5" />
	</g>
	<g
   id="g256">
		
		<ellipse
   style="fill:#2c323a"
   cx="476"
   cy="162.60001"
   rx="3.5999999"
   ry="5.8000002"
   id="ellipse248" />
		<circle
   id="rightEye0_1_"
   cx="468.6"
   cy="160.2"
   r="0.8" />
		<circle
   id="rightEye1_1_"
   cx="473.8"
   cy="156.5"
   r="0.8" />
		<circle
   id="rightEye5_1_"
   cx="473.8"
   cy="162.5"
   r="0.8" />
		<circle
   id="rightEye2_1_"
   cx="480.1"
   cy="156.5"
   r="0.8" />
		<circle
   id="rightEye3_1_"
   cx="485.3"
   cy="160.7"
   r="0.8" />
		<circle
   id="rightEye4_1_"
   cx="480.1"
   cy="161.7"
   r="0.8" />
	</g>
	<g
   id="g268">
		<ellipse
   style="fill:#2c323a"
   cx="519.60468"
   cy="161.69209"
   rx="3.5999999"
   ry="5.8000002"
   id="ellipse258" />
		
		<circle
   id="leftEye0_1_"
   cx="528.2"
   cy="160.2"
   r="0.8" />
		<circle
   id="leftEye1_1_"
   cx="523"
   cy="156.5"
   r="0.8" />
		<circle
   id="leftEye5_1_"
   cx="523"
   cy="162.5"
   r="0.8" />
		<circle
   id="leftEye2_1_"
   cx="516.7"
   cy="156.5"
   r="0.8" />
		<circle
   id="leftEye3_1_"
   cx="511.5"
   cy="160.7"
   r="0.8" />
		<circle
   id="leftEye4_1_"
   cx="516.7"
   cy="161.7"
   r="0.8" />
	</g>
	<g
   id="g277">
		<path
   style="fill:#2c323a"
   d="m 510.8,151.9 c 10.7,-5 14.2,-5 19.2,0.7 -5,-0.7 -5.7,2.8 -19.2,-0.7 z"
   id="path270" />
		<circle
   id="leftBrow1_1_"
   cx="530.1"
   cy="148.7"
   r="0.8" />
		<circle
   id="leftBrow4_1_"
   cx="506.5"
   cy="150.8"
   r="0.8" />
		<circle
   id="leftBrow3_1_"
   cx="516.5"
   cy="147.6"
   r="0.8" />
		<circle
   id="leftBrow0_1_"
   cx="534.1"
   cy="151.6"
   r="0.8" />
		<circle
   id="leftBrow2_1_"
   cx="523.8"
   cy="147.2"
   r="0.8" />
	</g>
	<g
   id="g286">
		<path
   style="fill:#2c323a"
   d="m 486,151.9 c -10.7,-5 -14.2,-5 -19.2,0.7 5,-0.7 5.7,2.8 19.2,-0.7 z"
   id="path279" />
		<circle
   id="rightBrow1_1_"
   cx="466.4"
   cy="148.3"
   r="0.8" />
		<circle
   id="rightBrow4_1_"
   cx="489.7"
   cy="151.3"
   r="0.8" />
		<circle
   id="rightBrow3_1_"
   cx="479.9"
   cy="147.3"
   r="0.8" />
		<circle
   id="rightBrow0_1_"
   cx="462.4"
   cy="152"
   r="0.8" />
		<circle
   id="rightBrow2_1_"
   cx="472.6"
   cy="147.3"
   r="0.8" />
	</g>
	
	<g
   id="g301">
		<path
   style="fill:#2c323a;stroke:#2c323a;stroke-width:2;stroke-miterlimit:10"
   d="m 492.75013,175.82274 c 0,1.2 1.6,4.6 5.2,5.8 1.2,0.2 5.8,-0.6 4.1,-6 -1,0.1 -1.1,4.7 -3.7,4.5 -1.8,-0.3 -1.8,-2 -5.6,-4.3 z"
   id="path290" />
		<circle
   id="nose1_1_"
   cx="497.6"
   cy="161.2"
   r="0.8" />
		<circle
   id="nose0_1_"
   cx="497.6"
   cy="155.4"
   r="0.8" />
		<circle
   id="nose3_1_"
   cx="497.6"
   cy="173.8"
   r="0.8" />
		<circle
   id="rightNose0_1_"
   cx="486.9"
   cy="178.3"
   r="0.8" />
		<circle
   id="rightNose1_1_"
   cx="492.1"
   cy="178.3"
   r="0.8" />
		<circle
   id="nose2_1_"
   cx="497.6"
   cy="166.7"
   r="0.8" />
		<circle
   id="nose4_1_"
   cx="497.6"
   cy="179.1"
   r="0.8" />
		<circle
   id="leftNose0_1_"
   cx="508"
   cy="178.3"
   r="0.8" />
		<circle
   id="leftNose1_1_"
   cx="503.2"
   cy="178.3"
   r="0.8" />
	</g>
<path
   style="fill:none;stroke:#000000;stroke-width:1;stroke-linecap:butt;stroke-linejoin:miter;stroke-miterlimit:4;stroke-dasharray:none;stroke-opacity:1"
   d="m 506.29122,114.10635 c 0,0 4.83947,-3.30378 8.16913,-5.91479 3.16067,-2.47851 8.4821,-7.49883 8.4821,-7.49883"
   id="path2006"
   sodipodi:nodetypes="csc" /><path
   style="fill:none;stroke:#000000;stroke-width:1.2;stroke-linecap:butt;stroke-linejoin:miter;stroke-miterlimit:4;stroke-dasharray:none;stroke-opacity:1"
   d="m 493.06515,117.83826 c 0,0 -1.51414,-9.49029 -5.18326,-13.23666 -4.02847,-4.11328 -8.3262,-7.813 -8.3262,-7.813"
   id="path2006-9"
   sodipodi:nodetypes="csc" /><path
   style="fill:#244043;fill-opacity:1;stroke:#000000;stroke-width:1px;stroke-linecap:butt;stroke-linejoin:miter;stroke-opacity:0.205645"
   d="m 533.61508,131.95976 c 0,0 13.33218,-17.30473 8.21972,-21.77113 -5.75294,1.33537 -15.55082,12.88496 -15.55082,12.88496 z"
   id="path2111"
   sodipodi:nodetypes="cccc" /><path
   style="fill:#244043;fill-opacity:1;stroke:#000000;stroke-width:1px;stroke-linecap:butt;stroke-linejoin:miter;stroke-opacity:0.205645"
   d="m 475.78999,119.6516 c 0,0 -12.44526,-6.38995 -17.55772,-10.85635 -5.75294,1.33537 5.34981,21.70967 5.34981,21.70967 z"
   id="path1754"
   sodipodi:nodetypes="cccc" /><path
   style="fill:none;stroke:#000000;stroke-width:1.6;stroke-linecap:butt;stroke-linejoin:miter;stroke-opacity:1;stroke-miterlimit:4;stroke-dasharray:none"
   d="m 431.45894,484.20453 c 0,0 27.77889,-10.30656 74.91009,-8.97064 45.16028,1.28007 71.72265,7.91572 71.72265,7.91572"
   id="path2220"
   sodipodi:nodetypes="csc" /></g>
<g
   id="skeleton_1_">
	<circle
   id="rightShoulder"
   cx="392.8"
   cy="294.3"
   r="8.2" />
	<circle
   id="rightElbow"
   cx="289.3"
   cy="294.4"
   r="8.2" />
	
		<ellipse
   id="rightWrist"
   transform="matrix(0.9951 -9.853767e-02 9.853767e-02 0.9951 -29.0274 13.8698)"
   cx="125.9"
   cy="300.8"
   ry="8.2"
   rx="8.2" />
	<circle
   id="rightHip"
   cx="443.1"
   cy="510.1"
   r="8.2" />
	<circle
   id="rightKnee"
   cx="449.5"
   cy="670.3"
   r="8.2" />
	<circle
   id="rightAnkle"
   cx="449.5"
   cy="878.3"
   r="8.2" />
	<circle
   id="leftShoulder"
   cx="605.7"
   cy="294.3"
   r="8.2" />
	<circle
   id="leftElbow"
   cx="710.1"
   cy="294"
   r="8.2" />
	<circle
   id="leftWrist"
   cx="873.5"
   cy="300.3"
   r="8.2" />
	<circle
   id="leftHip"
   cx="559.5"
   cy="509.3"
   r="8.2" />
	<circle
   id="leftKnee"
   cx="559.5"
   cy="670.3"
   r="8.2" />
	<circle
   id="leftAnkle"
   cx="559.5"
   cy="878.3"
   r="8.2" />
	<polygon
   style="fill:none;stroke:#000000;stroke-miterlimit:10;"
   points="392.7,294.6 443,510.4 559.4,509.6 605.6,294.6  "
   id="polygon316" />
	<polyline
   style="fill:none;stroke:#000000;stroke-miterlimit:10;"
   points="391.7,294.6 289,294.6 125.7,300.9  "
   id="polyline318" />
	<polyline
   style="fill:none;stroke:#000000;stroke-miterlimit:10;"
   points="607.1,294.2 710.3,294.2 873.6,300.6  "
   id="polyline320" />
	<polyline
   style="fill:none;stroke:#000000;stroke-miterlimit:10;"
   points="443,510.4 449.4,670.6 449.4,878.6  "
   id="polyline322" />
	<polyline
   style="fill:none;stroke:#000000;stroke-miterlimit:10;"
   points="559.4,509.6 559.4,670.6 559.4,878.6  "
   id="polyline324" />
	<circle
   id="rightEye0"
   cx="468.6"
   cy="160.2"
   r="0.8" />
	<circle
   id="rightBrow1"
   cx="466.4"
   cy="148.3"
   r="0.8" />
	<circle
   id="rightBrow4"
   cx="489.7"
   cy="151.3"
   r="0.8" />
	<circle
   id="nose1"
   cx="497.6"
   cy="161.2"
   r="0.8" />
	<circle
   id="rightBrow3"
   cx="479.9"
   cy="147.3"
   r="0.8" />
	<circle
   id="rightEye1"
   cx="473.8"
   cy="156.5"
   r="0.8" />
	<circle
   id="rightBrow0"
   cx="462.4"
   cy="152"
   r="0.8" />
	<circle
   id="rightBrow2"
   cx="472.6"
   cy="147.3"
   r="0.8" />
	<circle
   id="rightEye5"
   cx="473.8"
   cy="162.5"
   r="0.8" />
	<circle
   id="rightEye2"
   cx="480.1"
   cy="156.5"
   r="0.8" />
	<circle
   id="rightEye3"
   cx="485.3"
   cy="160.7"
   r="0.8" />
	<circle
   id="nose0"
   cx="497.6"
   cy="155.4"
   r="0.8" />
	<circle
   id="nose3"
   cx="497.6"
   cy="173.8"
   r="0.8" />
	<circle
   id="rightNose0"
   cx="486.9"
   cy="178.3"
   r="0.8" />
	<circle
   id="rightMouthCorner"
   cx="480.9"
   cy="200.4"
   r="0.8" />
	<circle
   id="rightNose1"
   cx="492.1"
   cy="178.3"
   r="0.8" />
	<circle
   id="rightUpperLipTop0"
   cx="487.8"
   cy="197"
   r="0.8" />
	<circle
   id="nose2"
   cx="497.6"
   cy="166.7"
   r="0.8" />
	<circle
   id="nose4"
   cx="497.6"
   cy="179.1"
   r="0.8" />
	<circle
   id="upperLipTopMid"
   cx="498.4"
   cy="196.8"
   r="0.8" />
	<circle
   id="rightUpperLipTop1"
   cx="494.3"
   cy="195.9"
   r="0.8" />
	<path
   id="rightMiddleLip"
   d="M484.5,199.9c0.4,0,0.8,0.4,0.8,0.8c0,0.4-0.4,0.8-0.8,0.8s-0.8-0.4-0.8-0.8S484.1,199.9,484.5,199.9z   " />
	<circle
   id="lowerLipBottomMid"
   cx="498.4"
   cy="210"
   r="0.8" />
	<circle
   id="upperLipBottomMid"
   cx="498.4"
   cy="200.4"
   r="0.8" />
	<circle
   id="lowerLipTopMid"
   cx="498.4"
   cy="203.5"
   r="0.8" />
	<circle
   id="rightUpperLipBottom1"
   cx="494.5"
   cy="199.9"
   r="0.8" />
	<circle
   id="rightLowerLipTop0"
   cx="494.5"
   cy="202.8"
   r="0.8" />
	<circle
   id="rightLowerLipBottom1"
   cx="494.3"
   cy="209.5"
   r="0.8" />
	<circle
   id="rightLowerLipBottom0"
   cx="487.3"
   cy="206.7"
   r="0.8" />
	<circle
   id="rightEye4"
   cx="480.1"
   cy="161.7"
   r="0.8" />
	<circle
   id="jawMid"
   cx="498.4"
   cy="235.8"
   r="0.8" />
	<circle
   id="rightJaw7"
   cx="483.4"
   cy="232.6"
   r="0.8" />
	<circle
   id="rightJaw6"
   cx="473.4"
   cy="225.9"
   r="0.8" />
	<circle
   id="rightJaw5"
   cx="461.8"
   cy="213.4"
   r="0.8" />
	<circle
   id="rightJaw4"
   cx="455"
   cy="193.4"
   r="0.8" />
	<circle
   id="rightJaw3"
   cx="454.2"
   cy="171.7"
   r="0.8" />
	<circle
   id="rightJaw2"
   cx="454.2"
   cy="162.2"
   r="0.8" />
	<circle
   id="rightJaw1"
   cx="455"
   cy="150.5"
   r="0.8" />
	<circle
   id="rightJaw0"
   cx="457.5"
   cy="141.2"
   r="0.8" />
	<circle
   id="topMid"
   cx="498.6"
   cy="115.1"
   r="0.8" />
	<circle
   id="leftTop0"
   cx="518.3"
   cy="117.6"
   r="0.8" />
	<circle
   id="leftTop1"
   cx="530.9"
   cy="127.1"
   r="0.8" />
	<circle
   id="leftEye0"
   cx="528.2"
   cy="160.2"
   r="0.8" />
	<circle
   id="leftBrow1"
   cx="530.1"
   cy="148.7"
   r="0.8" />
	<circle
   id="leftBrow4"
   cx="506.5"
   cy="150.8"
   r="0.8" />
	<circle
   id="leftBrow3"
   cx="516.5"
   cy="147.6"
   r="0.8" />
	<circle
   id="leftEye1"
   cx="523"
   cy="156.5"
   r="0.8" />
	<circle
   id="leftBrow0"
   cx="534.1"
   cy="151.6"
   r="0.8" />
	<circle
   id="leftBrow2"
   cx="523.8"
   cy="147.2"
   r="0.8" />
	<circle
   id="leftEye5"
   cx="523"
   cy="162.5"
   r="0.8" />
	<circle
   id="leftEye2"
   cx="516.7"
   cy="156.5"
   r="0.8" />
	<circle
   id="leftEye3"
   cx="511.5"
   cy="160.7"
   r="0.8" />
	<circle
   id="leftNose0"
   cx="508"
   cy="178.3"
   r="0.8" />
	<circle
   id="leftMouthCorner"
   cx="515.9"
   cy="200.4"
   r="0.8" />
	<circle
   id="leftNose1"
   cx="503.2"
   cy="178.3"
   r="0.8" />
	<circle
   id="leftUpperLipTop0"
   cx="509"
   cy="197"
   r="0.8" />
	<circle
   id="leftUpperLipTop1"
   cx="502.6"
   cy="195.9"
   r="0.8" />
	<path
   id="leftMiddleLip"
   d="M512.3,199.9c0.4,0,0.8,0.4,0.8,0.8c0,0.4-0.4,0.8-0.8,0.8c-0.4,0-0.8-0.4-0.8-0.8   S511.9,199.9,512.3,199.9z" />
	<circle
   id="leftUpperLipBottom1"
   cx="502.4"
   cy="199.9"
   r="0.8" />
	<circle
   id="leftLowerLipTop0"
   cx="502.4"
   cy="202.8"
   r="0.8" />
	<circle
   id="leftLowerLipBottom1"
   cx="502.6"
   cy="209.5"
   r="0.8" />
	<circle
   id="leftLowerLipBottom0"
   cx="509.5"
   cy="206.7"
   r="0.8" />
	<circle
   id="leftEye4"
   cx="516.7"
   cy="161.7"
   r="0.8" />
	<circle
   id="leftJaw7"
   cx="513.2"
   cy="233"
   r="0.8" />
	<circle
   id="leftJaw6"
   cx="523.2"
   cy="226.3"
   r="0.8" />
	<circle
   id="leftJaw5"
   cx="534.8"
   cy="213.7"
   r="0.8" />
	<circle
   id="leftJaw4"
   cx="541.6"
   cy="193.7"
   r="0.8" />
	<circle
   id="leftJaw3"
   cx="542.4"
   cy="172.1"
   r="0.8" />
	<circle
   id="leftJaw2"
   cx="542.4"
   cy="162.5"
   r="0.8" />
	<circle
   id="leftJaw1"
   cx="541.6"
   cy="150.8"
   r="0.8" />
	<circle
   id="leftJaw0"
   cx="539.1"
   cy="141.6"
   r="0.8" />
	<polyline
   style="fill:none;stroke:#000000;stroke-miterlimit:10;"
   points="498.4,115.1 478.6,117.6 466.1,127.1 457.5,141.2    455,150.5 454.2,162.2 454.2,171.7 455,193.4 461.8,213.4 473.4,225.9 483.4,232.6 498.4,235.8 513.2,233 523.2,226.3 534.8,213.7    541.6,193.7 542.4,172.1 542.4,162.5 541.6,150.8 539.1,141.6 530.9,127.1 518.3,117.6 498.4,115.1  "
   id="polyline397" />
	<polyline
   style="fill:none;stroke:#000000;stroke-miterlimit:10;"
   points="462.4,152 466.4,148.3 472.6,147.3 479.9,147.3    489.7,151.3  "
   id="polyline399" />
	<polygon
   style="fill:none;stroke:#000000;stroke-miterlimit:10;"
   points="468.6,160.2 473.8,156.5 480.1,156.5 485.3,160.7    480.1,161.7 473.8,162.5  "
   id="polygon401" />
	<polyline
   style="fill:none;stroke:#000000;stroke-miterlimit:10;"
   points="486.9,178.3 492.1,178.3 497.6,179.1 497.6,173.8    497.6,166.7 497.6,161.2 497.6,155.4  "
   id="polyline403" />
	<polyline
   style="fill:none;stroke:#000000;stroke-miterlimit:10;"
   points="533.9,151.6 529.9,148.7 523.6,147.2 516.3,147.6    506.3,150.8  "
   id="polyline405" />
	<polygon
   style="fill:none;stroke:#000000;stroke-miterlimit:10;"
   points="528,160.2 522.7,156.5 516.4,156.5 511.3,160.7    516.4,161.7 522.7,162.5  "
   id="polygon407" />
	<polyline
   style="fill:none;stroke:#000000;stroke-miterlimit:10;"
   points="508,178.3 503,178.3 497.6,179.1  "
   id="polyline409" />
	<polygon
   style="fill:none;stroke:#000000;stroke-miterlimit:10;"
   points="480.9,200.4 487.8,197 494.3,195.9 498.4,196.8    502.6,195.9 509,197 515.9,200.4 509.5,206.7 502.4,209.5 498.4,210 494.3,209.5 487.3,206.7  "
   id="polygon411" />
	<polyline
   style="fill:none;stroke:#000000;stroke-miterlimit:10;"
   points="480.9,200.4 484.5,200.7 494.5,199.9 498.4,200.4    502.4,199.9 512.3,200.7 515.9,200.4  "
   id="polyline413" />
	<polyline
   style="fill:none;stroke:#000000;stroke-miterlimit:10;"
   points="480.9,200.4 484.5,200.7 494.5,202.8 498.4,203.6    502.4,202.8 512.3,200.7 515.9,200.4  "
   id="polyline415" />
	<circle
   id="rightTop0"
   cx="478.7"
   cy="117.6"
   r="0.8" />
	<circle
   id="rightTop1"
   cx="466.1"
   cy="127.1"
   r="0.8" />
</g>
</svg>
